{"accessors" : [{"bufferView" : 0, "byteOffset" : 0, "componentType" : 5126, "normalized" : false, "count" : 2, "type" : "SCALAR", "max" : [0.03333333333333333], "min" : [0]}, {"bufferView" : 0, "byteOffset" : 8, "componentType" : 5126, "normalized" : false, "count" : 2, "type" : "VEC3", "max" : [0.0017739124596118927, 96.88729095458984, 0.0015802085399627686], "min" : [0.0017739124596118927, 96.88729095458984, 0.0015802085399627686]}], "animations" : [{"channels" : [{"sampler" : 0, "target" : {"node" : -1, "path" : "translation"}}], "samplers" : [{"input" : 0, "interpolation" : "CUBICSPLINE", "output" : 1}], "name" : "mixamo.com"}], "asset" : {"generator" : "Aspose.3D 24.6.0", "version" : "2.0"}, "buffers" : [{"uri" : "buffer.bin", "byteLength" : 36}], "bufferViews" : [{"buffer" : 0, "byteOffset" : 0, "byteLength" : 32}], "scene" : 0, "scenes" : [{}]}